#!OML:ASF I:\Actors\actors\Patient Classification 1\Patient 1\Session 1\Subject1.ASF
:FULLY-SPECIFIED
:DEGREES
528
root 0.616292 17.514 9.46074 10.2479 -2.64062 -8.40801
lowerback -0.63533 -0.404515 9.16733
upperback -10.2762 0.213554 3.50276
thorax -10.7081 -0.531156 -1.34032
lowerneck -4.20421 7.62493 9.60163
upperneck -3.82173 9.71438 -18.7967
head 1.0668 4.72832 -6.97223
rclavicle 1.33186e-014 0
rhumerus 46.4135 23.8084 -17.8479
rradius 95.612
rwrist 32.4392
rhand -15.0191 -27.9397
rfingers 7.12502
rthumb 11.1463 -57.6237
lclavicle 1.33186e-014 0
lhumerus 3.37369 19.7885 68.9924
lradius 92.4252
lwrist 94.8069
lhand -8.84795 -5.50642
lfingers 7.12502
lthumb 17.0928 23.7617
rfemur -3.89536 24.0495 24.6547
rtibia 2.79488
rfoot -14.0109 -25.8873
rtoes 1.73591
lfemur 6.49834 -45.2249 -12.5003
ltibia -4.55552
lfoot -25.7159 53.4637
ltoes 10.8511
529
root 0.616673 17.5135 9.45895 10.2537 -2.6749 -8.42525
lowerback -0.627479 -0.38951 9.21418
upperback -10.2452 0.228035 3.42435
thorax -10.6764 -0.531044 -1.45294
lowerneck -4.03471 7.59292 9.70007
upperneck -3.85683 9.6732 -18.8509
head 1.03083 4.71643 -7.01557
rclavicle -2.73329e-014 6.16232e-014
rhumerus 46.5999 24.2077 -18.0026
rradius 95.8742
rwrist 32.2463
rhand -15.0183 -28.1438
rfingers 7.12502
rthumb 11.1471 -57.8277
lclavicle -2.73329e-014 6.16232e-014
lhumerus 3.48691 19.7805 69.0048
lradius 92.3651
lwrist 94.8601
lhand -8.76794 -5.40437
lfingers 7.12502
lthumb 17.1698 23.857
rfemur -3.88369 24.1147 24.6729
rtibia 2.77072
rfoot -14.0718 -25.8962
rtoes 2.07835
lfemur 6.50238 -45.2426 -12.4882
ltibia -4.55043
lfoot -25.7711 53.5087
ltoes 10.823
530
root 0.616184 17.5131 9.45719 10.2614 -2.7121 -8.4533
lowerback -0.627989 -0.372291 9.26831
upperback -10.2092 0.243461 3.33475
thorax -10.6339 -0.531213 -1.58195
lowerneck -3.96049 7.56885 9.66044
upperneck -3.78261 9.65416 -18.7048
head 1.02536 4.70909 -6.96578
rclavicle 7.95139e-015 -4.37326e-014
rhumerus 46.8507 24.6842 -18.2232
rradius 96.0511
rwrist 32.1202
rhand -15.0899 -28.4635
rfingers 7.12502
rthumb 11.0781 -58.1511
lclavicle 7.95139e-015 -4.37326e-014
lhumerus 3.64587 19.7769 69.0147
lradius 92.2899
lwrist 95.0118
lhand -8.62462 -5.39318
lfingers 7.12502
lthumb 17.3078 23.8562
rfemur -3.88025 24.1744 24.7047
rtibia 2.7271
rfoot -13.9959 -25.9353
rtoes 1.79399
lfemur 6.52898 -45.2699 -12.4698
ltibia -4.56915
lfoot -25.977 53.5433
ltoes 11.0415
531
root 0.6153 17.5132 9.4554 10.2618 -2.76524 -8.49737
lowerback -0.643997 -0.352164 9.32327
upperback -10.1607 0.260795 3.25703
thorax -10.5674 -0.528642 -1.69927
lowerneck -3.96245 7.5566 9.58246
upperneck -3.60144 9.66216 -18.5468
head 1.06453 4.70849 -6.89912
rclavicle -7.65321e-015 2.10712e-014
rhumerus 47.1575 25.2214 -18.5174
rradius 96.1453
rwrist 32.2501
rhand -15.254 -28.9967
rfingers 7.12502
rthumb 10.9198 -58.6928
lclavicle -7.65321e-015 2.10712e-014
lhumerus 3.80741 19.8025 69.0552
lradius 92.2885
lwrist 95.0636
lhand -8.62548 -5.3945
lfingers 7.12502
lthumb 17.3069 23.8549
rfemur -3.87557 24.2221 24.7572
rtibia 2.70254
rfoot -13.9102 -25.9473
rtoes 1.50502
lfemur 6.57766 -45.2549 -12.4454
ltibia -4.59506
lfoot -26.1003 53.5504
ltoes 11.2231
532
root 0.614968 17.5131 9.45337 10.2564 -2.82496 -8.49787
lowerback -0.672517 -0.352123 9.31212
upperback -10.1148 0.248248 3.20444
thorax -10.4975 -0.533321 -1.75065
lowerneck -3.88527 7.5662 9.55777
upperneck -3.46529 9.69878 -18.5151
head 1.09235 4.72653 -6.88297
rclavicle -2.23633e-015 4.37326e-015
rhumerus 47.4927 25.7147 -18.7985
rradius 96.3255
rwrist 32.3478
rhand -15.2906 -29.3262
rfingers 7.12502
rthumb 10.8844 -59.0241
lclavicle -2.23633e-015 4.37326e-015
lhumerus 3.86789 19.9122 69.124
lradius 92.4004
lwrist 94.9837
lhand -8.67974 -5.29162
lfingers 7.12502
lthumb 17.2547 23.9624
rfemur -3.87667 24.2011 24.7502
rtibia 2.69346
rfoot -13.8594 -25.891
rtoes 1.25451
lfemur 6.61943 -45.2645 -12.4843
ltibia -4.58748
lfoot -26.3109 53.5451
ltoes 11.4753
533
root 0.614845 17.5126 9.44998 10.2669 -2.87192 -8.47824
lowerback -0.66534 -0.379199 9.26399
upperback -10.1015 0.205444 3.1643
thorax -10.4891 -0.551801 -1.76423
lowerneck -3.78389 7.5981 9.46506
upperneck -3.323 9.76899 -18.3943
head 1.11342 4.76293 -6.8264
rclavicle -4.22417e-015 5.96354e-015
rhumerus 47.8668 26.2147 -19.048
rradius 96.6041
rwrist 32.2605
rhand -15.3034 -29.5242
rfingers 7.12502
rthumb 10.8721 -59.2228
lclavicle -4.22417e-015 5.96354e-015
lhumerus 3.85357 20.05 69.1329
lradius 92.5256
lwrist 95.0483
lhand -8.94283 -5.24545
lfingers 7.12502
lthumb 17.0015 24.0305
rfemur -3.9198 24.1771 24.7053
rtibia 2.70324
rfoot -13.8032 -25.8463
rtoes 1.01628
lfemur 6.58429 -45.238 -12.4888
ltibia -4.5722
lfoot -26.3041 53.5531
ltoes 11.4675
534
root 0.614552 17.5117 9.4464 10.2863 -2.91811 -8.46571
lowerback -0.636389 -0.396504 9.21753
upperback -10.098 0.178507 3.11215
thorax -10.5035 -0.564351 -1.79247
lowerneck -3.66219 7.60743 9.44065
upperneck -3.23173 9.80154 -18.3661
head 1.12053 4.78237 -6.81438
rclavicle 2.01269e-014 -6.59965e-014
rhumerus 48.2084 26.7185 -19.2737
rradius 96.8671
rwrist 32.1193
rhand -15.4422 -29.7264
rfingers 7.12502
rthumb 10.7383 -59.432
lclavicle 2.01269e-014 -6.59965e-014
lhumerus 3.92241 20.1124 69.133
lradius 92.5807
lwrist 95.3559
lhand -9.4065 -5.45993
lfingers 7.12502
lthumb 16.5551 23.8539
rfemur -3.96831 24.1476 24.6625
rtibia 2.70662
rfoot -13.7805 -25.7815
rtoes 1.20637
lfemur 6.52065 -45.1431 -12.4508
ltibia -4.57231
lfoot -26.1173 53.5377
ltoes 11.2624
535
root 0.614064 17.5105 9.44323 10.3123 -2.98459 -8.47828
lowerback -0.623488 -0.372768 9.1945
upperback -10.0806 0.203573 3.0416
thorax -10.4873 -0.553129 -1.85854
lowerneck -3.48314 7.60186 9.593
upperneck -3.24711 9.80058 -18.5317
head 1.10418 4.78944 -6.8988
rclavicle -8.59744e-015 6.75868e-015
rhumerus 48.4454 27.1851 -19.5683
rradius 97.0924
rwrist 32.0379
rhand -15.4601 -29.8861
rfingers 7.12502
rthumb 10.7209 -59.5926
lclavicle -8.59744e-015 6.75868e-015
lhumerus 4.10692 20.0618 69.2006
lradius 92.5839
lwrist 95.5815
lhand -9.59913 -5.71865
lfingers 7.12502
lthumb 16.3696 23.6105
rfemur -4.03469 24.0376 24.6381
rtibia 2.71796
rfoot -13.7396 -25.615
rtoes 1.27269
lfemur 6.48375 -45.0767 -12.3987
ltibia -4.58093
lfoot -26.2782 53.4865
ltoes 11.4614
536
root 0.612699 17.5107 9.43964 10.3377 -3.05696 -8.54761
lowerback -0.60644 -0.340428 9.21278
upperback -10.061 0.243017 2.97468
thorax -10.4708 -0.538211 -1.9446
lowerneck -3.43026 7.63656 9.63721
upperneck -3.12065 9.86643 -18.4868
head 1.14021 4.8205 -6.88742
rclavicle -2.88735e-014 1.76918e-014
rhumerus 48.7472 27.7006 -19.9814
rradius 97.2142
rwrist 32.041
rhand -15.3842 -30.0204
rfingers 7.12502
rthumb 10.7942 -59.7231
lclavicle -2.88735e-014 1.76918e-014
lhumerus 4.27588 19.9871 69.2685
lradius 92.6114
lwrist 95.6163
lhand -9.53257 -5.84861
lfingers 7.12502
lthumb 16.4337 23.4753
rfemur -4.10207 24.0043 24.6918
rtibia 2.74867
rfoot -13.7213 -25.4777
rtoes 1.2282
lfemur 6.45442 -45.0223 -12.2844
ltibia -4.58932
lfoot -26.5159 53.4539
ltoes 11.7747
537
root 0.610539 17.5119 9.43635 10.348 -3.12218 -8.61537
lowerback -0.585648 -0.336648 9.20263
upperback -10.0354 0.244206 2.92955
thorax -10.453 -0.538092 -1.98837
lowerneck -3.65074 7.73143 9.58958
upperneck -2.67824 10.0399 -18.2798
head 1.31283 4.88312 -6.78608
rclavicle 1.67476e-014 -3.3197e-014
rhumerus 49.241 28.2842 -20.3056
rradius 97.2277
rwrist 32.0935
rhand -15.4193 -30.1375
rfingers 7.12502
rthumb 10.7603 -59.8419
lclavicle 1.67476e-014 -3.3197e-014
lhumerus 4.38 19.966 69.3035
lradius 92.6946
lwrist 95.4237
lhand -9.33135 -5.78575
lfingers 7.12502
lthumb 16.6275 23.522
rfemur -4.1222 24.1006 24.7662
rtibia 2.75428
rfoot -13.7781 -25.4513
rtoes 1.44629
lfemur 6.39193 -44.8535 -12.1563
ltibia -4.56536
lfoot -26.2347 53.4411
ltoes 11.4561
538
root 0.609153 17.5128 9.43343 10.3381 -3.19384 -8.62365
lowerback -0.53822 -0.332709 9.13082
upperback -10.0083 0.244806 2.87343
thorax -10.4475 -0.53385 -2.00991
lowerneck -3.8055 7.81628 9.5064
upperneck -2.31658 10.1926 -18.0531
head 1.44494 4.94187 -6.67836
rclavicle -2.38542e-014 4.31363e-014
rhumerus 49.6895 28.8705 -20.5423
rradius 97.2916
rwrist 32.1422
rhand -15.4647 -30.2518
rfingers 7.12502
rthumb 10.7166 -59.9585
lclavicle -2.38542e-014 4.31363e-014
lhumerus 4.48262 19.94 69.4053
lradius 92.7759
lwrist 95.2227
lhand -9.05482 -5.64414
lfingers 7.12502
lthumb 16.8937 23.6411
rfemur -4.12097 24.1249 24.7718
rtibia 2.7279
rfoot -13.6835 -25.429
rtoes 1.17584
lfemur 6.32521 -44.6499 -12.1057
ltibia -4.51396
lfoot -25.8919 53.3913
ltoes 11.022
539
root 0.610047 17.5131 9.42961 10.3347 -3.28045 -8.60316
lowerback -0.459584 -0.298163 9.05763
upperback -9.98719 0.288232 2.78367
thorax -10.4629 -0.511272 -2.07026
lowerneck -3.68241 7.82627 9.55065
upperneck -2.31067 10.2117 -18.0004
head 1.42749 4.9572 -6.67277
rclavicle -2.44257e-014 6.95746e-015
rhumerus 49.9992 29.3979 -20.9044
rradius 97.3597
rwrist 32.2473
rhand -15.4869 -30.3242
rfingers 7.12502
rthumb 10.6951 -60.0319
lclavicle -2.44257e-014 6.95746e-015
lhumerus 4.63091 19.875 69.5839
lradius 92.8261
lwrist 95.2805
lhand -8.88295 -5.60166
lfingers 7.12502
lthumb 17.0591 23.6693
rfemur -4.1561 23.989 24.7196
rtibia 2.71807
rfoot -13.4769 -25.2891
rtoes 0.579919
lfemur 6.30972 -44.6217 -12.1429
ltibia -4.46933
lfoot -26.0453 53.3836
ltoes 11.1663
540
root 0.612343 17.5129 9.42562 10.3565 -3.34673 -8.61963
lowerback -0.402537 -0.267935 9.04068
upperback -9.96463 0.327045 2.70739
thorax -10.466 -0.494643 -2.14681
lowerneck -3.45617 7.79317 9.71748
upperneck -2.42133 10.1625 -18.1009
head 1.36611 4.94568 -6.74603
rclavicle -2.28602e-015 1.41137e-014
rhumerus 50.3745 29.8896 -21.2974
rradius 97.3395
rwrist 32.3373
rhand -15.5393 -30.4066
rfingers 7.12502
rthumb 10.6445 -60.1169
lclavicle -2.28602e-015 1.41137e-014
lhumerus 4.80849 19.8394 69.7313
lradius 92.8361
lwrist 95.3765
lhand -8.75322 -5.53449
lfingers 7.12502
lthumb 17.184 23.7257
rfemur -4.20463 23.8615 24.6947
rtibia 2.69372
rfoot -13.4092 -25.1434
rtoes 0.353705
lfemur 6.32288 -44.6789 -12.1595
ltibia -4.46707
lfoot -26.1059 53.4918
ltoes 11.1928
541
root 0.612622 17.5126 9.42269 10.3666 -3.39766 -8.65108
lowerback -0.364385 -0.261013 9.00025
upperback -9.92967 0.332509 2.66321
thorax -10.4465 -0.489361 -2.17338
lowerneck -3.55202 7.84323 9.72875
upperneck -2.17856 10.2547 -18.0211
head 1.46027 4.97993 -6.70832
rclavicle -3.37934e-014 3.05134e-014
rhumerus 50.8816 30.3773 -21.5174
rradius 97.3635
rwrist 32.2369
rhand -15.469 -30.6172
rfingers 7.12502
rthumb 10.7124 -60.3241
lclavicle -3.37934e-014 3.05134e-014
lhumerus 5.02037 19.8628 69.891
lradius 92.7832
lwrist 95.5052
lhand -8.77553 -5.69298
lfingers 7.12502
lthumb 17.1625 23.5691
rfemur -4.21279 23.8768 24.7064
rtibia 2.64742
rfoot -13.4615 -25.0934
rtoes 0.527458
lfemur 6.34612 -44.689 -12.1465
ltibia -4.48098
lfoot -26.0394 53.5791
ltoes 11.0723
